# xmcd
#
# Track frame offsets: 
#        150
#        14353
#        29856
#        42878
#        57210
#        73459
#        89054
#        101798
#        118646
#        134544
#        145680
#        163174
#
# Disc length: 2383 seconds
#
# Revision: 0
# Processed by: cddbd v1.5.2PL0 Copyright (c) Steve Scherf et al.
# Submitted via: ExactAudioCopy v0.99pb5
#
DISCID=b9094d0c
DTITLE=Danny Hooper - 31 Days In Austin
DYEAR=2003
DGENRE=Country
TTITLE0=Blue And Broken Hearted
TTITLE1=We're Not Even Talkin'
TTITLE2=Someday, Someday
TTITLE3=Don't Let Him See You Cry
TTITLE4=Drive Him Out Of My Mind
TTITLE5=Back In Austin
TTITLE6=Lookin' Out The Window
TTITLE7=I Just Didn't Think
TTITLE8=Dashboard Hula Girl
TTITLE9=What's A Girl Gonna Do (With A Boy Like That)
TTITLE10=The John Deere Tractor Keys
TTITLE11=Dance Around The Christmas Tree (Bonus Track)
EXTD=
EXTT0=
EXTT1=
EXTT2=
EXTT3=
EXTT4=
EXTT5=
EXTT6=
EXTT7=
EXTT8=
EXTT9=
EXTT10=
EXTT11=
PLAYORDER=
